<?xml version="1.0" encoding="UTF-8" standalone="no"?>
<!-- Created with Inkscape (http://www.inkscape.org/) -->

<svg
   width="640"
   height="640"
   viewBox="0 0 640 640"
   version="1.1"
   id="svg5"
   inkscape:version="1.2.2 (732a01da63, 2022-12-09)"
   sodipodi:docname="logo.svg"
   xmlns:inkscape="http://www.inkscape.org/namespaces/inkscape"
   xmlns:sodipodi="http://sodipodi.sourceforge.net/DTD/sodipodi-0.dtd"
   xmlns:xlink="http://www.w3.org/1999/xlink"
   xmlns="http://www.w3.org/2000/svg"
   xmlns:svg="http://www.w3.org/2000/svg">
  <sodipodi:namedview
     id="namedview7"
     pagecolor="#505050"
     bordercolor="#ffffff"
     borderopacity="1"
     inkscape:showpageshadow="0"
     inkscape:pageopacity="0"
     inkscape:pagecheckerboard="1"
     inkscape:deskcolor="#505050"
     inkscape:document-units="px"
     showgrid="false"
     inkscape:zoom="0.51276154"
     inkscape:cx="21.452467"
     inkscape:cy="283.75763"
     inkscape:window-width="1920"
     inkscape:window-height="1001"
     inkscape:window-x="-9"
     inkscape:window-y="-9"
     inkscape:window-maximized="1"
     inkscape:current-layer="layer1" />
  <defs
     id="defs2">
    <linearGradient
       inkscape:collect="always"
       id="linearGradient3239">
      <stop
         style="stop-color:#ffffff;stop-opacity:1;"
         offset="0"
         id="stop3235" />
      <stop
         style="stop-color:#ffffff;stop-opacity:0;"
         offset="1"
         id="stop3237" />
    </linearGradient>
    <linearGradient
       inkscape:collect="always"
       id="linearGradient3225">
      <stop
         style="stop-color:#ffffff;stop-opacity:1;"
         offset="0"
         id="stop3221" />
      <stop
         style="stop-color:#ffffff;stop-opacity:0;"
         offset="1"
         id="stop3223" />
    </linearGradient>
    <linearGradient
       inkscape:collect="always"
       id="linearGradient3155">
      <stop
         style="stop-color:#ffffff;stop-opacity:1;"
         offset="0"
         id="stop3151" />
      <stop
         style="stop-color:#ffffff;stop-opacity:0;"
         offset="1"
         id="stop3153" />
    </linearGradient>
    <inkscape:path-effect
       effect="fillet_chamfer"
       id="path-effect2968"
       is_visible="true"
       lpeversion="1"
       nodesatellites_param="F,0,0,1,0,16,0,1 @ F,0,0,1,0,16,0,1 @ F,0,0,1,0,16,0,1 @ F,0,0,1,0,16,0,1 @ F,0,0,1,0,16,0,1 @ F,0,0,1,0,16,0,1 @ F,0,0,1,0,16,0,1 @ F,0,0,1,0,16,0,1 @ F,0,0,1,0,16,0,1 @ F,0,0,1,0,16,0,1 @ F,0,0,1,0,16,0,1 @ F,0,0,1,0,16,0,1 @ F,0,0,1,0,16,0,1 @ F,0,0,1,0,16,0,1 @ F,0,0,1,0,16,0,1 @ F,0,0,1,0,16,0,1 @ F,0,0,1,0,16,0,1 @ F,0,0,1,0,16,0,1 @ F,0,0,1,0,16,0,1 @ F,0,0,1,0,16,0,1 @ F,0,0,1,0,16,0,1 @ F,0,0,1,0,16,0,1 @ F,0,0,1,0,16,0,1 @ F,0,0,1,0,16,0,1 @ F,0,0,1,0,16,0,1 @ F,0,0,1,0,16,0,1 @ F,0,0,1,0,16,0,1 @ F,0,0,1,0,16,0,1 @ F,0,0,1,0,16,0,1 @ F,0,0,1,0,16,0,1 @ F,0,0,1,0,16,0,1 @ F,0,0,1,0,16,0,1 | F,0,0,1,0,16,0,1 @ F,0,0,1,0,16,0,1 @ F,0,0,1,0,16,0,1 @ F,0,0,1,0,16,0,1 @ F,0,0,1,0,16,0,1 @ F,0,0,1,0,16,0,1 @ F,0,0,1,0,16,0,1 @ F,0,0,1,0,16,0,1 @ F,0,0,1,0,16,0,1 @ F,0,0,1,0,16,0,1 @ F,0,0,1,0,16,0,1 @ F,0,0,1,0,16,0,1 @ F,0,0,1,0,16,0,1 @ F,0,0,1,0,16,0,1 @ F,0,0,1,0,16,0,1 @ F,0,0,1,0,16,0,1 @ F,0,0,1,0,16,0,1 @ F,0,0,1,0,16,0,1 @ F,0,0,1,0,16,0,1 @ F,0,0,1,0,16,0,1 @ F,0,0,1,0,16,0,1 @ F,0,0,1,0,16,0,1 @ F,0,0,1,0,16,0,1 @ F,0,0,1,0,16,0,1 @ F,0,0,1,0,16,0,1 @ F,0,0,1,0,16,0,1 @ F,0,0,1,0,16,0,1 @ F,0,0,1,0,16,0,1 @ F,0,0,1,0,16,0,1 @ F,0,0,1,0,16,0,1 @ F,0,0,1,0,16,0,1 | F,0,0,1,0,16,0,1 @ F,0,0,1,0,16,0,1 @ F,0,0,1,0,16,0,1 @ F,0,0,1,0,16,0,1 @ F,0,0,1,0,16,0,1 @ F,0,0,1,0,16,0,1"
       unit="px"
       method="auto"
       mode="F"
       radius="16"
       chamfer_steps="1"
       flexible="false"
       use_knot_distance="true"
       apply_no_radius="true"
       apply_with_radius="true"
       only_selected="false"
       hide_knots="false" />
    <inkscape:path-effect
       effect="fillet_chamfer"
       id="path-effect2966"
       is_visible="true"
       lpeversion="1"
       nodesatellites_param="F,0,0,1,0,0,0,1 @ F,0,0,1,0,0,0,1 @ F,0,0,1,0,0,0,1 @ F,0,0,1,0,0,0,1 @ F,0,0,1,0,0,0,1 @ F,0,0,1,0,0,0,1 @ F,0,0,1,0,0,0,1 @ F,0,0,1,0,0,0,1 @ F,0,0,1,0,0,0,1 @ F,0,0,1,0,0,0,1 @ F,0,0,1,0,0,0,1 @ F,0,0,1,0,0,0,1 @ F,0,0,1,0,0,0,1 @ F,0,0,1,0,0,0,1 @ F,0,0,1,0,0,0,1 @ F,0,0,1,0,0,0,1 @ F,0,0,1,0,0,0,1 @ F,0,0,1,0,0,0,1 @ F,0,0,1,0,0,0,1 @ F,0,0,1,0,0,0,1 @ F,0,0,1,0,0,0,1 @ F,0,0,1,0,0,0,1 @ F,0,0,1,0,0,0,1 @ F,0,0,1,0,0,0,1 @ F,0,0,1,0,0,0,1 @ F,0,0,1,0,0,0,1 @ F,0,0,1,0,0,0,1 @ F,0,0,1,0,0,0,1 @ F,0,0,1,0,0,0,1 @ F,0,0,1,0,0,0,1 @ F,0,0,1,0,0,0,1 @ F,0,0,1,0,0,0,1 | F,0,0,1,0,0,0,1 @ F,0,0,1,0,0,0,1 @ F,0,0,1,0,0,0,1 @ F,0,0,1,0,0,0,1 @ F,0,0,1,0,0,0,1 @ F,0,0,1,0,0,0,1 @ F,0,0,1,0,0,0,1 @ F,0,0,1,0,0,0,1 @ F,0,0,1,0,0,0,1 @ F,0,0,1,0,0,0,1 @ F,0,0,1,0,0,0,1 @ F,0,0,1,0,0,0,1 @ F,0,0,1,0,0,0,1 @ F,0,0,1,0,0,0,1 @ F,0,0,1,0,0,0,1 @ F,0,0,1,0,0,0,1 @ F,0,0,1,0,0,0,1 @ F,0,0,1,0,0,0,1 @ F,0,0,1,0,0,0,1 @ F,0,0,1,0,0,0,1 @ F,0,0,1,0,0,0,1 @ F,0,0,1,0,0,0,1 @ F,0,0,1,0,0,0,1 @ F,0,0,1,0,0,0,1 @ F,0,0,1,0,0,0,1 @ F,0,0,1,0,0,0,1 @ F,0,0,1,0,0,0,1 @ F,0,0,1,0,0,0,1 @ F,0,0,1,0,0,0,1 @ F,0,0,1,0,0,0,1 @ F,0,0,1,0,0,0,1 | F,0,0,1,0,0,0,1 @ F,0,0,1,0,0,0,1 @ F,0,0,1,0,0,0,1 @ F,0,0,1,0,0,0,1 @ F,0,0,1,0,0,0,1 @ F,0,0,1,0,0,0,1"
       unit="px"
       method="auto"
       mode="F"
       radius="16"
       chamfer_steps="1"
       flexible="false"
       use_knot_distance="true"
       apply_no_radius="true"
       apply_with_radius="true"
       only_selected="false"
       hide_knots="false" />
    <inkscape:path-effect
       effect="fillet_chamfer"
       id="path-effect2847"
       is_visible="true"
       lpeversion="1"
       nodesatellites_param="F,0,0,1,0,16,0,1 @ F,0,0,1,0,16,0,1 @ F,0,0,1,0,16,0,1 @ F,0,0,1,0,16,0,1 @ F,0,0,1,0,16,0,1 @ F,0,0,1,0,16,0,1 @ F,0,0,1,0,16,0,1 @ F,0,0,1,0,16,0,1 @ F,0,0,1,0,16,0,1 @ F,0,0,1,0,16,0,1 @ F,0,0,1,0,16,0,1 @ F,0,0,1,0,16,0,1 @ F,0,0,1,0,16,0,1 @ F,0,0,1,0,16,0,1 @ F,0,0,1,0,16,0,1 @ F,0,0,1,0,16,0,1 @ F,0,0,1,0,16,0,1 @ F,0,0,1,0,16,0,1 @ F,0,0,1,0,16,0,1 @ F,0,0,1,0,16,0,1 @ F,0,0,1,0,16,0,1 @ F,0,0,1,0,16,0,1 @ F,0,0,1,0,16,0,1 @ F,0,0,1,0,16,0,1 @ F,0,0,1,0,16,0,1 @ F,0,0,1,0,16,0,1 @ F,0,0,1,0,16,0,1 @ F,0,0,1,0,16,0,1 @ F,0,0,1,0,16,0,1 @ F,0,0,1,0,16,0,1 @ F,0,0,1,0,16,0,1 @ F,0,0,1,0,16,0,1 @ F,0,0,1,0,16,0,1 @ F,0,0,1,0,16,0,1"
       unit="px"
       method="auto"
       mode="F"
       radius="16"
       chamfer_steps="1"
       flexible="false"
       use_knot_distance="true"
       apply_no_radius="true"
       apply_with_radius="true"
       only_selected="false"
       hide_knots="false" />
    <linearGradient
       inkscape:collect="always"
       id="linearGradient2792">
      <stop
         style="stop-color:#00fbc8;stop-opacity:1;"
         offset="0"
         id="stop2788" />
      <stop
         style="stop-color:#0c55fc;stop-opacity:1;"
         offset="1"
         id="stop2790" />
    </linearGradient>
    <inkscape:perspective
       sodipodi:type="inkscape:persp3d"
       inkscape:vp_x="-487.55607 : 353.15381 : 1"
       inkscape:vp_y="0 : 1000 : 0"
       inkscape:vp_z="640 : 320 : 1"
       inkscape:persp3d-origin="320 : 213.33333 : 1"
       id="perspective117" />
    <linearGradient
       inkscape:collect="always"
       xlink:href="#linearGradient2792"
       id="linearGradient2794"
       x1="768.92999"
       y1="474.45779"
       x2="374.3924"
       y2="-208.88507"
       gradientUnits="userSpaceOnUse"
       gradientTransform="matrix(1.4573562,0,0,-0.84140447,-474.02125,373.47746)" />
    <linearGradient
       inkscape:collect="always"
       xlink:href="#linearGradient3155"
       id="linearGradient3157"
       x1="405.95898"
       y1="225.75188"
       x2="234.04102"
       y2="414.24814"
       gradientUnits="userSpaceOnUse"
       gradientTransform="matrix(0.89844028,0,0,0.89844021,71.591915,-25.750455)" />
    <linearGradient
       inkscape:collect="always"
       xlink:href="#linearGradient3239"
       id="linearGradient3229"
       x1="304.90744"
       y1="-1.2142289"
       x2="0.011078953"
       y2="639.98108"
       gradientUnits="userSpaceOnUse"
       gradientTransform="matrix(1,0,0,1.1820407,0,-116.50257)" />
    <linearGradient
       inkscape:collect="always"
       xlink:href="#linearGradient2792"
       id="linearGradient3231"
       gradientUnits="userSpaceOnUse"
       gradientTransform="matrix(1.6220959,0,0,-1.1070011,-607.28929,408.7451)"
       x1="768.92999"
       y1="474.45779"
       x2="374.3924"
       y2="-208.88507" />
    <linearGradient
       inkscape:collect="always"
       xlink:href="#linearGradient2792"
       id="linearGradient3233"
       gradientUnits="userSpaceOnUse"
       gradientTransform="matrix(1.6220959,0,0,-1.1070011,-529.10365,408.7451)"
       x1="768.92999"
       y1="474.45779"
       x2="374.3924"
       y2="-208.88507" />
    <linearGradient
       inkscape:collect="always"
       xlink:href="#linearGradient3225"
       id="linearGradient3241"
       gradientUnits="userSpaceOnUse"
       x1="639.98889"
       y1="0.018917916"
       x2="335.09256"
       y2="641.21423"
       gradientTransform="matrix(1,0,0,1.1820407,78.185636,-116.50257)" />
  </defs>
  <g
     inkscape:label="Calque 1"
     inkscape:groupmode="layer"
     id="layer1">
    <g
       id="g3259"
       transform="matrix(0.85097062,0,0,0.8078944,14.42256,108.53329)">
      <path
         id="path3111"
         style="fill:url(#linearGradient2794);stroke:url(#linearGradient3157);stroke-width:28.7501;stroke-dasharray:none;stroke-opacity:1"
         d="m 359.09282,178.87986 a 24.897861,24.897859 0 0 0 -12.44832,2.95677 l -50.53551,29.17649 a 24.898532,24.89853 0 0 0 -12.44831,21.56257 v 29.17474 29.17475 a 24.898532,24.89853 0 0 0 12.44831,21.56257 l 50.53551,29.17649 a 24.897861,24.897859 0 0 0 12.44832,2.95677 24.897861,24.897859 0 0 0 12.44832,-2.95677 l 50.53551,-29.17649 a 24.898532,24.89853 0 0 0 12.44831,-21.56257 v -29.17475 -29.17474 a 24.898532,24.89853 0 0 0 -12.44831,-21.56257 l -50.53551,-29.17649 a 24.897861,24.897859 0 0 0 -12.44832,-2.95677 z" />
      <path
         id="path2842"
         style="fill:url(#linearGradient3233);stroke:url(#linearGradient3241);stroke-width:34.7909;stroke-dasharray:none"
         d="m 540.00009,-116.46794 c -8.77007,-0.35115 -22.17495,6.90511 -28.73633,13.74122 -6.62775,6.905318 -16.58339,19.108825 -22.83203,26.494332 l -24.98047,29.52793 c -6.2486,7.38551 -16.53955,19.122647 -22.3496,26.909894 C 435.28328,-11.996167 431.54727,-2.3651499 430.9415,0 c -2.56045,9.9969469 -6.42264,26.307938 -8.85352,36.350059 l -2.06054,8.519002 c -2.43088,10.042121 -4.52627,18.664942 -4.68164,19.258953 -2.61011,9.978338 1.17153,22.185981 8.82422,27.408568 l 97.85937,66.782988 a 27.712812,32.75767 0 0 1 13.85547,28.36898 v 75.06189 75.06188 a 27.712812,32.75767 0 0 1 -13.85547,28.36898 l -97.85937,66.78299 c -7.65269,5.22259 -11.43433,17.43023 -8.82422,27.40857 0.15537,0.59401 2.25076,9.21683 4.68164,19.25895 l 2.06054,8.519 c 2.43088,10.04212 6.29307,26.35312 8.85352,36.35006 0.60577,2.36516 4.34178,11.99615 10.16016,19.79457 5.81005,7.78724 16.101,19.52439 22.3496,26.90989 l 24.98047,29.52793 c 6.24864,7.3855 16.20428,19.58903 22.83203,26.49433 6.56138,6.83613 19.96626,14.09237 28.73633,13.74122 7.32725,-0.29342 19.54797,-6.93192 26.14258,-13.81278 6.58638,-6.87235 16.5173,-19.03921 22.76563,-26.42508 l 95.21484,-112.55012 c 6.24829,-7.38587 16.57416,-19.15411 22.41602,-26.98839 5.78329,-7.75581 11.92232,-23.60096 11.625,-33.96751 -0.2484,-8.65976 -5.86395,-23.10465 -11.68555,-30.89928 -5.81386,-7.78423 -16.10718,-19.52166 -22.35547,-26.90759 l -67.60938,-79.91933 c -5.42963,-6.41822 -14.5653,-17.5248 -15.69335,-26.74829 1.12805,-9.2235 10.26372,-20.33007 15.69335,-26.7483 l 67.60938,-79.91932 c 6.24829,-7.38594 16.54161,-19.12337 22.35547,-26.9076 5.8216,-7.79462 11.43715,-22.23952 11.68555,-30.899275 0.29732,-10.366556 -5.84171,-26.211705 -11.625,-33.967511 C 700.6973,55.474153 690.37143,43.70591 684.12314,36.320047 L 588.9083,-76.23008 c -6.24833,-7.385873 -16.17925,-19.552744 -22.76563,-26.42507 -6.59461,-6.88088 -18.81533,-13.51938 -26.14258,-13.81279 z" />
      <path
         id="path3215"
         style="fill:url(#linearGradient3231);stroke:url(#linearGradient3229);stroke-width:34.7909;stroke-dasharray:none"
         d="m 178.18555,-116.46794 c -7.32725,0.29341 -19.54797,6.93191 -26.14258,13.81279 -6.58638,6.872326 -16.5173,19.039197 -22.76563,26.42507 L 34.0625,36.320047 C 27.814198,43.70591 17.488329,55.474153 11.646484,63.308434 5.8631826,71.06424 -0.27583473,86.909389 0.02148438,97.275945 0.26988363,105.9357 5.8854193,120.3806 11.707031,128.17522 c 5.813842,7.78423 16.107167,19.52166 22.355469,26.9076 l 67.60938,79.91932 c 5.42963,6.41823 14.5653,17.5248 15.69335,26.7483 -1.12805,9.22349 -10.26372,20.33007 -15.69335,26.74829 L 34.0625,368.41806 c -6.248302,7.38593 -16.541627,19.12336 -22.355469,26.90759 -5.8216116,7.79463 -11.43714737,22.23952 -11.68554662,30.89928 -0.29731911,10.36655 5.84169832,26.2117 11.62499962,33.96751 5.841845,7.83428 16.167714,19.60252 22.416016,26.98839 l 95.21484,112.55012 c 6.24833,7.38587 16.17925,19.55273 22.76563,26.42508 6.59461,6.88086 18.81533,13.51936 26.14258,13.81278 8.77007,0.35115 22.17495,-6.90509 28.73633,-13.74122 6.62775,-6.9053 16.58339,-19.10883 22.83203,-26.49433 l 24.98047,-29.52793 c 6.2486,-7.3855 16.53955,-19.12265 22.3496,-26.90989 5.81838,-7.79842 9.55439,-17.42941 10.16016,-19.79457 2.56045,-9.99694 6.42264,-26.30794 8.85352,-36.35006 l 2.06054,-8.519 c 2.43088,-10.04212 4.52627,-18.66494 4.68164,-19.25895 2.61011,-9.97834 -1.17153,-22.18598 -8.82422,-27.40857 L 196.15625,365.1813 a 27.712812,32.75767 0 0 1 -13.85547,-28.36898 v -75.06188 -75.06189 a 27.712812,32.75767 0 0 1 13.85547,-28.36898 l 97.85937,-66.782988 c 7.65269,-5.222587 11.43433,-17.43023 8.82422,-27.408568 -0.15537,-0.594011 -2.25076,-9.216832 -4.68164,-19.258953 l -2.06054,-8.519002 C 293.66678,26.307938 289.80459,9.9969469 287.24414,0 c -0.60577,-2.3651499 -4.34178,-11.996167 -10.16016,-19.794564 -5.81005,-7.787247 -16.101,-19.524384 -22.3496,-26.909894 l -24.98047,-29.52793 c -6.24864,-7.385507 -16.20428,-19.589014 -22.83203,-26.494332 -6.56138,-6.83611 -19.96626,-14.09237 -28.73633,-13.74122 z" />
    </g>
  </g>
</svg>
